<?xml version="1.0" encoding="UTF-8" standalone="no"?>
<!-- Created with Inkscape (http://www.inkscape.org/) -->

<svg
   width="26.107777mm"
   height="26.760269mm"
   viewBox="0 0 26.107777 26.760269"
   version="1.1"
   id="svg5"
   sodipodi:docname="tuberia_diametros.svg"
   inkscape:version="1.1.2 (b8e25be833, 2022-02-05)"
   xmlns:inkscape="http://www.inkscape.org/namespaces/inkscape"
   xmlns:sodipodi="http://sodipodi.sourceforge.net/DTD/sodipodi-0.dtd"
   xmlns:xlink="http://www.w3.org/1999/xlink"
   xmlns="http://www.w3.org/2000/svg"
   xmlns:svg="http://www.w3.org/2000/svg">
  <sodipodi:namedview
     id="namedview7"
     pagecolor="#ffffff"
     bordercolor="#666666"
     borderopacity="1.0"
     inkscape:pageshadow="2"
     inkscape:pageopacity="0.0"
     inkscape:pagecheckerboard="0"
     inkscape:document-units="mm"
     showgrid="false"
     inkscape:snap-object-midpoints="true"
     inkscape:snap-intersection-paths="true"
     inkscape:object-paths="true"
     inkscape:snap-smooth-nodes="true"
     inkscape:snap-midpoints="true"
     inkscape:snap-global="false"
     inkscape:zoom="2.8863636"
     inkscape:cx="26.503937"
     inkscape:cy="83.496063"
     inkscape:window-width="1920"
     inkscape:window-height="1016"
     inkscape:window-x="-8"
     inkscape:window-y="32"
     inkscape:window-maximized="1"
     inkscape:current-layer="layer1" />
  <defs
     id="defs2">
    <marker
       style="overflow:visible"
       id="marker3261"
       refX="0"
       refY="0"
       orient="auto"
       inkscape:stockid="Arrow1Send"
       inkscape:isstock="true">
      <path
         transform="matrix(-0.2,0,0,-0.2,-1.2,0)"
         style="fill:context-stroke;fill-rule:evenodd;stroke:context-stroke;stroke-width:1pt"
         d="M 0,0 5,-5 -12.5,0 5,5 Z"
         id="path3259" />
    </marker>
    <marker
       style="overflow:visible"
       id="Arrow1Mend"
       refX="0"
       refY="0"
       orient="auto"
       inkscape:stockid="Arrow1Mend"
       inkscape:isstock="true">
      <path
         transform="matrix(-0.4,0,0,-0.4,-4,0)"
         style="fill:context-stroke;fill-rule:evenodd;stroke:context-stroke;stroke-width:1pt"
         d="M 0,0 5,-5 -12.5,0 5,5 Z"
         id="path1104" />
    </marker>
    <marker
       style="overflow:visible"
       id="marker1926"
       refX="0"
       refY="0"
       orient="auto"
       inkscape:stockid="Arrow2Mend"
       inkscape:isstock="true">
      <path
         transform="scale(-0.6)"
         d="M 8.7185878,4.0337352 -2.2072895,0.01601326 8.7185884,-4.0017078 c -1.7454984,2.3720609 -1.7354408,5.6174519 -6e-7,8.035443 z"
         style="fill:context-stroke;fill-rule:evenodd;stroke:context-stroke;stroke-width:0.625;stroke-linejoin:round"
         id="path1924" />
    </marker>
    <marker
       style="overflow:visible"
       id="Arrow2Mend"
       refX="0"
       refY="0"
       orient="auto"
       inkscape:stockid="Arrow2Mend"
       inkscape:isstock="true">
      <path
         transform="scale(-0.6)"
         d="M 8.7185878,4.0337352 -2.2072895,0.01601326 8.7185884,-4.0017078 c -1.7454984,2.3720609 -1.7354408,5.6174519 -6e-7,8.035443 z"
         style="fill:context-stroke;fill-rule:evenodd;stroke:context-stroke;stroke-width:0.625;stroke-linejoin:round"
         id="path1122" />
    </marker>
    <marker
       style="overflow:visible"
       id="Arrow2Send"
       refX="0"
       refY="0"
       orient="auto"
       inkscape:stockid="Arrow2Send"
       inkscape:isstock="true">
      <path
         transform="matrix(-0.3,0,0,-0.3,0.69,0)"
         d="M 8.7185878,4.0337352 -2.2072895,0.01601326 8.7185884,-4.0017078 c -1.7454984,2.3720609 -1.7354408,5.6174519 -6e-7,8.035443 z"
         style="fill:context-stroke;fill-rule:evenodd;stroke:context-stroke;stroke-width:0.625;stroke-linejoin:round"
         id="path1128" />
    </marker>
    <marker
       style="overflow:visible"
       id="marker1498"
       refX="0"
       refY="0"
       orient="auto"
       inkscape:stockid="Arrow1Send"
       inkscape:isstock="true">
      <path
         transform="matrix(-0.2,0,0,-0.2,-1.2,0)"
         style="fill:context-stroke;fill-rule:evenodd;stroke:context-stroke;stroke-width:1pt"
         d="M 0,0 5,-5 -12.5,0 5,5 Z"
         id="path1496" />
    </marker>
    <marker
       style="overflow:visible"
       id="Arrow1Send"
       refX="0"
       refY="0"
       orient="auto"
       inkscape:stockid="Arrow1Send"
       inkscape:isstock="true">
      <path
         transform="matrix(-0.2,0,0,-0.2,-1.2,0)"
         style="fill:context-stroke;fill-rule:evenodd;stroke:context-stroke;stroke-width:1pt"
         d="M 0,0 5,-5 -12.5,0 5,5 Z"
         id="path1110" />
    </marker>
    <g
       id="g7621">
      <symbol
         overflow="visible"
         id="symbol1322">
        <path
           style="stroke:none"
           d=""
           id="path721" />
      </symbol>
      <symbol
         overflow="visible"
         id="symbol955">
        <path
           style="stroke:none"
           d="m 1.578125,-0.78125 c -0.09375,0.390625 -0.109375,0.46875 -0.90625,0.46875 -0.15625,0 -0.265625,0 -0.265625,0.1875 C 0.40625,0 0.484375,0 0.671875,0 h 3.3125 c 2.0625,0 4.03125,-2.109375 4.03125,-4.28125 0,-1.40625 -0.84375,-2.53125 -2.34375,-2.53125 h -3.34375 c -0.1875,0 -0.296875,0 -0.296875,0.1875 0,0.125 0.078125,0.125 0.28125,0.125 0.125,0 0.3125,0.015625 0.421875,0.015625 0.171875,0.03125 0.21875,0.046875 0.21875,0.171875 0,0.03125 0,0.0625 -0.03125,0.1875 z M 3.734375,-6.125 C 3.828125,-6.46875 3.84375,-6.5 4.28125,-6.5 h 1.0625 c 0.96875,0 1.796875,0.53125 1.796875,1.84375 0,0.484375 -0.1875,2.125 -1.046875,3.21875 -0.28125,0.375 -1.0625,1.125 -2.296875,1.125 h -1.125 c -0.140625,0 -0.15625,0 -0.21875,0 -0.09375,-0.015625 -0.125,-0.03125 -0.125,-0.109375 0,-0.03125 0,-0.046875 0.046875,-0.21875 z m 0,0"
           id="path8818" />
      </symbol>
      <symbol
         overflow="visible"
         id="symbol8921">
        <path
           style="stroke:none"
           d=""
           id="path8618" />
      </symbol>
      <symbol
         overflow="visible"
         id="symbol5855">
        <path
           style="stroke:none"
           d="m 1.46875,-4.296875 c 0,-0.203125 -0.171875,-0.40625 -0.40625,-0.40625 -0.203125,0 -0.390625,0.171875 -0.390625,0.40625 0,0.25 0.203125,0.40625 0.390625,0.40625 0.234375,0 0.40625,-0.171875 0.40625,-0.40625 z M 0.40625,-3 v 0.25 c 0.4375,0 0.5,0.046875 0.5,0.390625 v 1.8125 C 0.90625,-0.25 0.84375,-0.25 0.390625,-0.25 V 0 c 0.015625,0 0.5,-0.03125 0.78125,-0.03125 0.25,0 0.5,0.015625 0.734375,0.03125 V -0.25 C 1.5,-0.25 1.4375,-0.25 1.4375,-0.546875 v -2.53125 z m 0,0"
           id="path9155" />
      </symbol>
      <symbol
         overflow="visible"
         id="symbol8501">
        <path
           style="stroke:none"
           d="m 3.59375,-2.109375 c 0,-0.609375 -0.296875,-0.96875 -1.046875,-0.96875 -0.578125,0 -0.9375,0.3125 -1.140625,0.6875 v -0.6875 L 0.375,-3 v 0.25 c 0.46875,0 0.53125,0.046875 0.53125,0.390625 v 1.8125 C 0.90625,-0.25 0.828125,-0.25 0.375,-0.25 V 0 C 0.390625,0 0.875,-0.03125 1.171875,-0.03125 1.421875,-0.03125 1.90625,0 1.96875,0 v -0.25 c -0.453125,0 -0.515625,0 -0.515625,-0.296875 V -1.8125 c 0,-0.71875 0.578125,-1.0625 1.03125,-1.0625 0.484375,0 0.546875,0.375 0.546875,0.734375 v 1.59375 C 3.03125,-0.25 2.96875,-0.25 2.515625,-0.25 V 0 C 2.53125,0 3.015625,-0.03125 3.3125,-0.03125 3.5625,-0.03125 4.046875,0 4.109375,0 v -0.25 c -0.453125,0 -0.515625,0 -0.515625,-0.296875 z m 0,0"
           id="path4331" />
      </symbol>
      <symbol
         overflow="visible"
         id="symbol2077">
        <path
           style="stroke:none"
           d="M 1.40625,-2.75 H 2.484375 V -3 H 1.40625 v -1.28125 h -0.25 c 0,0.625 -0.28125,1.3125 -0.953125,1.328125 V -2.75 H 0.84375 v 1.875 c 0,0.78125 0.59375,0.9375 0.984375,0.9375 0.46875,0 0.78125,-0.390625 0.78125,-0.9375 V -1.265625 H 2.375 v 0.375 c 0,0.484375 -0.21875,0.734375 -0.5,0.734375 -0.46875,0 -0.46875,-0.578125 -0.46875,-0.703125 z m 0,0"
           id="path1777" />
      </symbol>
      <symbol
         overflow="visible"
         id="symbol2627">
        <path
           style="stroke:none"
           d="m 3.0625,-1.59375 c 0.15625,0 0.203125,0 0.203125,-0.140625 0,-0.625 -0.34375,-1.375 -1.390625,-1.375 -0.90625,0 -1.609375,0.71875 -1.609375,1.578125 0,0.890625 0.78125,1.59375 1.703125,1.59375 0.9375,0 1.296875,-0.75 1.296875,-0.90625 0,-0.015625 -0.015625,-0.09375 -0.125,-0.09375 -0.09375,0 -0.109375,0.046875 -0.125,0.109375 -0.21875,0.5625 -0.75,0.671875 -1,0.671875 C 1.6875,-0.15625 1.375,-0.296875 1.171875,-0.5625 0.90625,-0.890625 0.90625,-1.3125 0.90625,-1.59375 Z M 0.90625,-1.765625 C 0.984375,-2.75 1.609375,-2.90625 1.875,-2.90625 c 0.859375,0 0.890625,0.96875 0.90625,1.140625 z m 0,0"
           id="path6317" />
      </symbol>
      <symbol
         overflow="visible"
         id="symbol952">
        <path
           style="stroke:none"
           d="m 1.390625,-1.59375 c 0,-0.578125 0.265625,-1.28125 0.9375,-1.28125 -0.0625,0.046875 -0.125,0.140625 -0.125,0.25 0,0.234375 0.1875,0.3125 0.3125,0.3125 0.171875,0 0.328125,-0.109375 0.328125,-0.3125 0,-0.234375 -0.234375,-0.453125 -0.5625,-0.453125 -0.34375,0 -0.734375,0.21875 -0.9375,0.75 v -0.75 L 0.34375,-3 v 0.25 c 0.46875,0 0.515625,0.046875 0.515625,0.390625 v 1.8125 C 0.859375,-0.25 0.796875,-0.25 0.34375,-0.25 V 0 c 0.03125,0 0.5,-0.03125 0.796875,-0.03125 0.296875,0 0.59375,0.015625 0.90625,0.03125 V -0.25 H 1.90625 c -0.515625,0 -0.515625,-0.078125 -0.515625,-0.3125 z m 0,0"
           id="path5307" />
      </symbol>
      <symbol
         overflow="visible"
         id="symbol7640">
        <path
           style="stroke:none"
           d="m 3.6875,-1.484375 c 0,-0.875 -0.75,-1.625 -1.703125,-1.625 -0.96875,0 -1.71875,0.75 -1.71875,1.625 0,0.859375 0.765625,1.546875 1.71875,1.546875 0.9375,0 1.703125,-0.6875 1.703125,-1.546875 z M 1.984375,-0.15625 c -0.265625,0 -0.640625,-0.078125 -0.875,-0.421875 -0.1875,-0.28125 -0.203125,-0.640625 -0.203125,-0.96875 0,-0.296875 0,-0.71875 0.25,-1.015625 0.171875,-0.203125 0.46875,-0.34375 0.828125,-0.34375 0.40625,0 0.703125,0.1875 0.859375,0.40625 0.1875,0.265625 0.203125,0.625 0.203125,0.953125 0,0.328125 -0.015625,0.703125 -0.21875,0.984375 -0.1875,0.265625 -0.5,0.40625 -0.84375,0.40625 z m 0,0"
           id="path2736" />
      </symbol>
    </g>
    <g
       id="g4885">
      <symbol
         overflow="visible"
         id="symbol519">
        <path
           style="stroke:none"
           d=""
           id="path3509" />
      </symbol>
      <symbol
         overflow="visible"
         id="symbol2580">
        <path
           style="stroke:none"
           d="m 1.578125,-0.78125 c -0.09375,0.390625 -0.109375,0.46875 -0.90625,0.46875 -0.15625,0 -0.265625,0 -0.265625,0.1875 C 0.40625,0 0.484375,0 0.671875,0 h 3.3125 c 2.0625,0 4.03125,-2.109375 4.03125,-4.28125 0,-1.40625 -0.84375,-2.53125 -2.34375,-2.53125 h -3.34375 c -0.1875,0 -0.296875,0 -0.296875,0.1875 0,0.125 0.078125,0.125 0.28125,0.125 0.125,0 0.3125,0.015625 0.421875,0.015625 0.171875,0.03125 0.21875,0.046875 0.21875,0.171875 0,0.03125 0,0.0625 -0.03125,0.1875 z M 3.734375,-6.125 C 3.828125,-6.46875 3.84375,-6.5 4.28125,-6.5 h 1.0625 c 0.96875,0 1.796875,0.53125 1.796875,1.84375 0,0.484375 -0.1875,2.125 -1.046875,3.21875 -0.28125,0.375 -1.0625,1.125 -2.296875,1.125 h -1.125 c -0.140625,0 -0.15625,0 -0.21875,0 -0.09375,-0.015625 -0.125,-0.03125 -0.125,-0.109375 0,-0.03125 0,-0.046875 0.046875,-0.21875 z m 0,0"
           id="path6495" />
      </symbol>
      <symbol
         overflow="visible"
         id="symbol2123">
        <path
           style="stroke:none"
           d=""
           id="path7816" />
      </symbol>
      <symbol
         overflow="visible"
         id="symbol7160">
        <path
           style="stroke:none"
           d="m 3.0625,-1.59375 c 0.15625,0 0.203125,0 0.203125,-0.140625 0,-0.625 -0.34375,-1.375 -1.390625,-1.375 -0.90625,0 -1.609375,0.71875 -1.609375,1.578125 0,0.890625 0.78125,1.59375 1.703125,1.59375 0.9375,0 1.296875,-0.75 1.296875,-0.90625 0,-0.015625 -0.015625,-0.09375 -0.125,-0.09375 -0.09375,0 -0.109375,0.046875 -0.125,0.109375 -0.21875,0.5625 -0.75,0.671875 -1,0.671875 C 1.6875,-0.15625 1.375,-0.296875 1.171875,-0.5625 0.90625,-0.890625 0.90625,-1.3125 0.90625,-1.59375 Z M 0.90625,-1.765625 C 0.984375,-2.75 1.609375,-2.90625 1.875,-2.90625 c 0.859375,0 0.890625,0.96875 0.90625,1.140625 z m 0,0"
           id="path477" />
      </symbol>
      <symbol
         overflow="visible"
         id="symbol1858">
        <path
           style="stroke:none"
           d="m 2.359375,-1.5625 c 0,0 -0.046875,-0.0625 -0.046875,-0.0625 0,-0.03125 0.453125,-0.515625 0.515625,-0.578125 C 3.078125,-2.484375 3.3125,-2.75 3.875,-2.75 V -3 C 3.671875,-2.984375 3.46875,-2.96875 3.28125,-2.96875 3.078125,-2.96875 2.796875,-2.984375 2.59375,-3 v 0.25 c 0.109375,0.015625 0.140625,0.09375 0.140625,0.15625 0,0.015625 0,0.125 -0.109375,0.234375 L 2.140625,-1.8125 1.5625,-2.46875 C 1.484375,-2.546875 1.484375,-2.578125 1.484375,-2.609375 c 0,-0.09375 0.09375,-0.140625 0.1875,-0.140625 V -3 c -0.25,0.015625 -0.515625,0.03125 -0.78125,0.03125 C 0.6875,-2.96875 0.421875,-2.984375 0.21875,-3 v 0.25 c 0.3125,0 0.5,0 0.6875,0.203125 l 0.859375,1 c 0.015625,0.015625 0.0625,0.0625 0.0625,0.078125 0,0.015625 -0.53125,0.59375 -0.59375,0.671875 -0.265625,0.28125 -0.5,0.53125 -1.046875,0.546875 V 0 C 0.390625,-0.015625 0.546875,-0.03125 0.765625,-0.03125 0.96875,-0.03125 1.25,-0.015625 1.453125,0 V -0.25 C 1.375,-0.265625 1.3125,-0.3125 1.3125,-0.40625 1.3125,-0.546875 1.390625,-0.640625 1.5,-0.75 L 2,-1.296875 2.59375,-0.59375 c 0.140625,0.140625 0.140625,0.15625 0.140625,0.203125 0,0.125 -0.15625,0.140625 -0.1875,0.140625 V 0 c 0.0625,0 0.5625,-0.03125 0.78125,-0.03125 C 3.546875,-0.03125 3.78125,-0.015625 4,0 v -0.25 c -0.46875,0 -0.515625,-0.046875 -0.6875,-0.21875 z m 0,0"
           id="path4743" />
      </symbol>
      <symbol
         overflow="visible"
         id="symbol8161">
        <path
           style="stroke:none"
           d="M 1.40625,-2.75 H 2.484375 V -3 H 1.40625 v -1.28125 h -0.25 c 0,0.625 -0.28125,1.3125 -0.953125,1.328125 V -2.75 H 0.84375 v 1.875 c 0,0.78125 0.59375,0.9375 0.984375,0.9375 0.46875,0 0.78125,-0.390625 0.78125,-0.9375 V -1.265625 H 2.375 v 0.375 c 0,0.484375 -0.21875,0.734375 -0.5,0.734375 -0.46875,0 -0.46875,-0.578125 -0.46875,-0.703125 z m 0,0"
           id="path9082" />
      </symbol>
      <symbol
         overflow="visible"
         id="symbol4411">
        <path
           style="stroke:none"
           d="m 1.390625,-1.59375 c 0,-0.578125 0.265625,-1.28125 0.9375,-1.28125 -0.0625,0.046875 -0.125,0.140625 -0.125,0.25 0,0.234375 0.1875,0.3125 0.3125,0.3125 0.171875,0 0.328125,-0.109375 0.328125,-0.3125 0,-0.234375 -0.234375,-0.453125 -0.5625,-0.453125 -0.34375,0 -0.734375,0.21875 -0.9375,0.75 v -0.75 L 0.34375,-3 v 0.25 c 0.46875,0 0.515625,0.046875 0.515625,0.390625 v 1.8125 C 0.859375,-0.25 0.796875,-0.25 0.34375,-0.25 V 0 c 0.03125,0 0.5,-0.03125 0.796875,-0.03125 0.296875,0 0.59375,0.015625 0.90625,0.03125 V -0.25 H 1.90625 c -0.515625,0 -0.515625,-0.078125 -0.515625,-0.3125 z m 0,0"
           id="path4679" />
      </symbol>
      <symbol
         overflow="visible"
         id="symbol4150">
        <path
           style="stroke:none"
           d="m 1.46875,-4.296875 c 0,-0.203125 -0.171875,-0.40625 -0.40625,-0.40625 -0.203125,0 -0.390625,0.171875 -0.390625,0.40625 0,0.25 0.203125,0.40625 0.390625,0.40625 0.234375,0 0.40625,-0.171875 0.40625,-0.40625 z M 0.40625,-3 v 0.25 c 0.4375,0 0.5,0.046875 0.5,0.390625 v 1.8125 C 0.90625,-0.25 0.84375,-0.25 0.390625,-0.25 V 0 c 0.015625,0 0.5,-0.03125 0.78125,-0.03125 0.25,0 0.5,0.015625 0.734375,0.03125 V -0.25 C 1.5,-0.25 1.4375,-0.25 1.4375,-0.546875 v -2.53125 z m 0,0"
           id="path7559" />
      </symbol>
      <symbol
         overflow="visible"
         id="symbol9550">
        <path
           style="stroke:none"
           d="m 3.6875,-1.484375 c 0,-0.875 -0.75,-1.625 -1.703125,-1.625 -0.96875,0 -1.71875,0.75 -1.71875,1.625 0,0.859375 0.765625,1.546875 1.71875,1.546875 0.9375,0 1.703125,-0.6875 1.703125,-1.546875 z M 1.984375,-0.15625 c -0.265625,0 -0.640625,-0.078125 -0.875,-0.421875 -0.1875,-0.28125 -0.203125,-0.640625 -0.203125,-0.96875 0,-0.296875 0,-0.71875 0.25,-1.015625 0.171875,-0.203125 0.46875,-0.34375 0.828125,-0.34375 0.40625,0 0.703125,0.1875 0.859375,0.40625 0.1875,0.265625 0.203125,0.625 0.203125,0.953125 0,0.328125 -0.015625,0.703125 -0.21875,0.984375 -0.1875,0.265625 -0.5,0.40625 -0.84375,0.40625 z m 0,0"
           id="path6813" />
      </symbol>
    </g>
    <g
       id="g3870">
      <symbol
         overflow="visible"
         id="symbol2772">
        <path
           style="stroke:none"
           d=""
           id="path3546" />
      </symbol>
      <symbol
         overflow="visible"
         id="symbol5693">
        <path
           style="stroke:none"
           d="m 1.578125,-0.78125 c -0.09375,0.390625 -0.109375,0.46875 -0.90625,0.46875 -0.15625,0 -0.265625,0 -0.265625,0.1875 C 0.40625,0 0.484375,0 0.671875,0 h 3.3125 c 2.0625,0 4.03125,-2.109375 4.03125,-4.28125 0,-1.40625 -0.84375,-2.53125 -2.34375,-2.53125 h -3.34375 c -0.1875,0 -0.296875,0 -0.296875,0.1875 0,0.125 0.078125,0.125 0.28125,0.125 0.125,0 0.3125,0.015625 0.421875,0.015625 0.171875,0.03125 0.21875,0.046875 0.21875,0.171875 0,0.03125 0,0.0625 -0.03125,0.1875 z M 3.734375,-6.125 C 3.828125,-6.46875 3.84375,-6.5 4.28125,-6.5 h 1.0625 c 0.96875,0 1.796875,0.53125 1.796875,1.84375 0,0.484375 -0.1875,2.125 -1.046875,3.21875 -0.28125,0.375 -1.0625,1.125 -2.296875,1.125 h -1.125 c -0.140625,0 -0.15625,0 -0.21875,0 -0.09375,-0.015625 -0.125,-0.03125 -0.125,-0.109375 0,-0.03125 0,-0.046875 0.046875,-0.21875 z m 0,0"
           id="path5353" />
      </symbol>
      <symbol
         overflow="visible"
         id="symbol8649">
        <path
           style="stroke:none"
           d=""
           id="path7183" />
      </symbol>
      <symbol
         overflow="visible"
         id="symbol1813">
        <path
           style="stroke:none"
           d="m 1.46875,-4.296875 c 0,-0.203125 -0.171875,-0.40625 -0.40625,-0.40625 -0.203125,0 -0.390625,0.171875 -0.390625,0.40625 0,0.25 0.203125,0.40625 0.390625,0.40625 0.234375,0 0.40625,-0.171875 0.40625,-0.40625 z M 0.40625,-3 v 0.25 c 0.4375,0 0.5,0.046875 0.5,0.390625 v 1.8125 C 0.90625,-0.25 0.84375,-0.25 0.390625,-0.25 V 0 c 0.015625,0 0.5,-0.03125 0.78125,-0.03125 0.25,0 0.5,0.015625 0.734375,0.03125 V -0.25 C 1.5,-0.25 1.4375,-0.25 1.4375,-0.546875 v -2.53125 z m 0,0"
           id="path9849" />
      </symbol>
      <symbol
         overflow="visible"
         id="symbol8841">
        <path
           style="stroke:none"
           d="m 3.59375,-2.109375 c 0,-0.609375 -0.296875,-0.96875 -1.046875,-0.96875 -0.578125,0 -0.9375,0.3125 -1.140625,0.6875 v -0.6875 L 0.375,-3 v 0.25 c 0.46875,0 0.53125,0.046875 0.53125,0.390625 v 1.8125 C 0.90625,-0.25 0.828125,-0.25 0.375,-0.25 V 0 C 0.390625,0 0.875,-0.03125 1.171875,-0.03125 1.421875,-0.03125 1.90625,0 1.96875,0 v -0.25 c -0.453125,0 -0.515625,0 -0.515625,-0.296875 V -1.8125 c 0,-0.71875 0.578125,-1.0625 1.03125,-1.0625 0.484375,0 0.546875,0.375 0.546875,0.734375 v 1.59375 C 3.03125,-0.25 2.96875,-0.25 2.515625,-0.25 V 0 C 2.53125,0 3.015625,-0.03125 3.3125,-0.03125 3.5625,-0.03125 4.046875,0 4.109375,0 v -0.25 c -0.453125,0 -0.515625,0 -0.515625,-0.296875 z m 0,0"
           id="path7588" />
      </symbol>
      <symbol
         overflow="visible"
         id="symbol7049">
        <path
           style="stroke:none"
           d="M 1.40625,-2.75 H 2.484375 V -3 H 1.40625 v -1.28125 h -0.25 c 0,0.625 -0.28125,1.3125 -0.953125,1.328125 V -2.75 H 0.84375 v 1.875 c 0,0.78125 0.59375,0.9375 0.984375,0.9375 0.46875,0 0.78125,-0.390625 0.78125,-0.9375 V -1.265625 H 2.375 v 0.375 c 0,0.484375 -0.21875,0.734375 -0.5,0.734375 -0.46875,0 -0.46875,-0.578125 -0.46875,-0.703125 z m 0,0"
           id="path2310" />
      </symbol>
      <symbol
         overflow="visible"
         id="symbol5710">
        <path
           style="stroke:none"
           d="m 3.0625,-1.59375 c 0.15625,0 0.203125,0 0.203125,-0.140625 0,-0.625 -0.34375,-1.375 -1.390625,-1.375 -0.90625,0 -1.609375,0.71875 -1.609375,1.578125 0,0.890625 0.78125,1.59375 1.703125,1.59375 0.9375,0 1.296875,-0.75 1.296875,-0.90625 0,-0.015625 -0.015625,-0.09375 -0.125,-0.09375 -0.09375,0 -0.109375,0.046875 -0.125,0.109375 -0.21875,0.5625 -0.75,0.671875 -1,0.671875 C 1.6875,-0.15625 1.375,-0.296875 1.171875,-0.5625 0.90625,-0.890625 0.90625,-1.3125 0.90625,-1.59375 Z M 0.90625,-1.765625 C 0.984375,-2.75 1.609375,-2.90625 1.875,-2.90625 c 0.859375,0 0.890625,0.96875 0.90625,1.140625 z m 0,0"
           id="path9282" />
      </symbol>
      <symbol
         overflow="visible"
         id="symbol2570">
        <path
           style="stroke:none"
           d="m 1.390625,-1.59375 c 0,-0.578125 0.265625,-1.28125 0.9375,-1.28125 -0.0625,0.046875 -0.125,0.140625 -0.125,0.25 0,0.234375 0.1875,0.3125 0.3125,0.3125 0.171875,0 0.328125,-0.109375 0.328125,-0.3125 0,-0.234375 -0.234375,-0.453125 -0.5625,-0.453125 -0.34375,0 -0.734375,0.21875 -0.9375,0.75 v -0.75 L 0.34375,-3 v 0.25 c 0.46875,0 0.515625,0.046875 0.515625,0.390625 v 1.8125 C 0.859375,-0.25 0.796875,-0.25 0.34375,-0.25 V 0 c 0.03125,0 0.5,-0.03125 0.796875,-0.03125 0.296875,0 0.59375,0.015625 0.90625,0.03125 V -0.25 H 1.90625 c -0.515625,0 -0.515625,-0.078125 -0.515625,-0.3125 z m 0,0"
           id="path8058" />
      </symbol>
      <symbol
         overflow="visible"
         id="symbol4666">
        <path
           style="stroke:none"
           d="m 3.6875,-1.484375 c 0,-0.875 -0.75,-1.625 -1.703125,-1.625 -0.96875,0 -1.71875,0.75 -1.71875,1.625 0,0.859375 0.765625,1.546875 1.71875,1.546875 0.9375,0 1.703125,-0.6875 1.703125,-1.546875 z M 1.984375,-0.15625 c -0.265625,0 -0.640625,-0.078125 -0.875,-0.421875 -0.1875,-0.28125 -0.203125,-0.640625 -0.203125,-0.96875 0,-0.296875 0,-0.71875 0.25,-1.015625 0.171875,-0.203125 0.46875,-0.34375 0.828125,-0.34375 0.40625,0 0.703125,0.1875 0.859375,0.40625 0.1875,0.265625 0.203125,0.625 0.203125,0.953125 0,0.328125 -0.015625,0.703125 -0.21875,0.984375 -0.1875,0.265625 -0.5,0.40625 -0.84375,0.40625 z m 0,0"
           id="path570" />
      </symbol>
    </g>
    <g
       id="g8865">
      <symbol
         overflow="visible"
         id="symbol6808">
        <path
           style="stroke:none"
           d=""
           id="path8464" />
      </symbol>
      <symbol
         overflow="visible"
         id="symbol8833">
        <path
           style="stroke:none"
           d="M 3.734375,-6.296875 C 3.828125,-6.375 3.90625,-6.484375 3.90625,-6.59375 c 0,-0.1875 -0.171875,-0.359375 -0.359375,-0.359375 -0.140625,0 -0.25,0.109375 -0.296875,0.171875 l -1.203125,1.515625 0.171875,0.1875 z m 0,0"
           id="path530" />
      </symbol>
      <symbol
         overflow="visible"
         id="symbol3179">
        <path
           style="stroke:none"
           d="m 3.96875,-6.9375 c -0.046875,-0.125 -0.078125,-0.203125 -0.234375,-0.203125 -0.15625,0 -0.1875,0.0625 -0.234375,0.203125 L 1.4375,-0.984375 C 1.25,-0.46875 0.859375,-0.3125 0.3125,-0.3125 V 0 c 0.234375,-0.015625 0.671875,-0.03125 1.015625,-0.03125 0.3125,0 0.828125,0.015625 1.15625,0.03125 v -0.3125 c -0.5,0 -0.75,-0.25 -0.75,-0.5 0,-0.03125 0.015625,-0.140625 0.015625,-0.15625 L 2.21875,-2.265625 H 4.671875 L 5.203125,-0.75 c 0.015625,0.046875 0.03125,0.109375 0.03125,0.140625 0,0.296875 -0.5625,0.296875 -0.828125,0.296875 V 0 c 0.359375,-0.03125 1.0625,-0.03125 1.4375,-0.03125 0.421875,0 0.890625,0.015625 1.296875,0.03125 V -0.3125 H 6.96875 C 6.375,-0.3125 6.234375,-0.375 6.125,-0.703125 Z m -0.53125,1.109375 1.125,3.25 H 2.328125 Z m 0,0"
           id="path738" />
      </symbol>
      <symbol
         overflow="visible"
         id="symbol9603">
        <path
           style="stroke:none"
           d="M 1.671875,-3.3125 V -4.40625 L 0.28125,-4.296875 v 0.3125 c 0.703125,0 0.78125,0.0625 0.78125,0.5625 V -0.75 c 0,0.4375 -0.109375,0.4375 -0.78125,0.4375 V 0 c 0.390625,-0.015625 0.859375,-0.03125 1.140625,-0.03125 0.390625,0 0.859375,0 1.265625,0.03125 V -0.3125 H 2.46875 c -0.734375,0 -0.75,-0.109375 -0.75,-0.46875 V -2.3125 c 0,-0.984375 0.421875,-1.875 1.171875,-1.875 0.0625,0 0.09375,0 0.109375,0.015625 -0.03125,0 -0.234375,0.125 -0.234375,0.390625 0,0.265625 0.21875,0.421875 0.4375,0.421875 0.171875,0 0.421875,-0.125 0.421875,-0.4375 0,-0.3125 -0.3125,-0.609375 -0.734375,-0.609375 -0.734375,0 -1.09375,0.671875 -1.21875,1.09375 z m 0,0"
           id="path5854" />
      </symbol>
      <symbol
         overflow="visible"
         id="symbol8899">
        <path
           style="stroke:none"
           d="M 1.109375,-2.515625 C 1.171875,-4 2.015625,-4.25 2.359375,-4.25 c 1.015625,0 1.125,1.34375 1.125,1.734375 z m 0,0.21875 h 2.78125 c 0.21875,0 0.25,0 0.25,-0.21875 0,-0.984375 -0.546875,-1.953125 -1.78125,-1.953125 -1.15625,0 -2.078125,1.03125 -2.078125,2.28125 0,1.328125 1.046875,2.296875 2.1875,2.296875 C 3.6875,0.109375 4.140625,-1 4.140625,-1.1875 4.140625,-1.28125 4.0625,-1.3125 4,-1.3125 c -0.078125,0 -0.109375,0.0625 -0.125,0.140625 -0.34375,1.03125 -1.25,1.03125 -1.34375,1.03125 -0.5,0 -0.890625,-0.296875 -1.125,-0.671875 -0.296875,-0.46875 -0.296875,-1.125 -0.296875,-1.484375 z m 0,0"
           id="path8928" />
      </symbol>
      <symbol
         overflow="visible"
         id="symbol1168">
        <path
           style="stroke:none"
           d="m 3.3125,-0.75 c 0.046875,0.390625 0.3125,0.8125 0.78125,0.8125 0.21875,0 0.828125,-0.140625 0.828125,-0.953125 v -0.5625 h -0.25 v 0.5625 c 0,0.578125 -0.25,0.640625 -0.359375,0.640625 -0.328125,0 -0.375,-0.453125 -0.375,-0.5 v -1.984375 c 0,-0.421875 0,-0.8125 -0.359375,-1.1875 C 3.1875,-4.3125 2.6875,-4.46875 2.21875,-4.46875 c -0.828125,0 -1.515625,0.46875 -1.515625,1.125 0,0.296875 0.203125,0.46875 0.46875,0.46875 0.28125,0 0.453125,-0.203125 0.453125,-0.453125 0,-0.125 -0.046875,-0.453125 -0.515625,-0.453125 C 1.390625,-4.140625 1.875,-4.25 2.1875,-4.25 c 0.5,0 1.0625,0.390625 1.0625,1.28125 v 0.359375 c -0.515625,0.03125 -1.203125,0.0625 -1.828125,0.359375 -0.75,0.34375 -1,0.859375 -1,1.296875 0,0.8125 0.96875,1.0625 1.59375,1.0625 0.65625,0 1.109375,-0.40625 1.296875,-0.859375 z M 3.25,-2.390625 v 1 c 0,0.9375 -0.71875,1.28125 -1.171875,1.28125 -0.484375,0 -0.890625,-0.34375 -0.890625,-0.84375 0,-0.546875 0.421875,-1.375 2.0625,-1.4375 z m 0,0"
           id="path1045" />
      </symbol>
      <symbol
         overflow="visible"
         id="symbol4584">
        <path
           style="stroke:none"
           d="m 3.78125,-0.546875 v 0.65625 L 5.25,0 v -0.3125 c -0.6875,0 -0.78125,-0.0625 -0.78125,-0.5625 V -6.921875 L 3.046875,-6.8125 V -6.5 c 0.6875,0 0.765625,0.0625 0.765625,0.5625 v 2.15625 c -0.28125,-0.359375 -0.71875,-0.625 -1.25,-0.625 -1.171875,0 -2.21875,0.984375 -2.21875,2.265625 0,1.265625 0.96875,2.25 2.109375,2.25 0.640625,0 1.078125,-0.34375 1.328125,-0.65625 z m 0,-2.671875 v 2.046875 c 0,0.171875 0,0.1875 -0.109375,0.359375 C 3.375,-0.328125 2.9375,-0.109375 2.5,-0.109375 2.046875,-0.109375 1.6875,-0.375 1.453125,-0.75 1.203125,-1.15625 1.171875,-1.71875 1.171875,-2.140625 1.171875,-2.5 1.1875,-3.09375 1.46875,-3.546875 1.6875,-3.859375 2.0625,-4.1875 2.609375,-4.1875 c 0.34375,0 0.765625,0.15625 1.0625,0.59375 0.109375,0.171875 0.109375,0.1875 0.109375,0.375 z m 0,0"
           id="path2662" />
      </symbol>
      <symbol
         overflow="visible"
         id="symbol8187">
        <path
           style="stroke:none"
           d="M 3.8125,-3.984375 V -0.75 c 0,0.4375 -0.109375,0.4375 -0.765625,0.4375 V 0 c 0.328125,-0.015625 0.84375,-0.03125 1.09375,-0.03125 0.25,0 0.75,0.015625 1.109375,0.03125 v -0.3125 c -0.671875,0 -0.78125,0 -0.78125,-0.4375 v -6.171875 l -0.359375,0.0625 C 4.078125,-6.859375 4.0625,-6.875 4.03125,-6.890625 3.703125,-7.03125 3.296875,-7.03125 3.1875,-7.03125 c -1.046875,0 -2.125,0.5625 -2.125,1.59375 v 1.140625 H 0.265625 v 0.3125 H 1.0625 V -0.75 c 0,0.4375 -0.109375,0.4375 -0.78125,0.4375 V 0 C 0.609375,-0.015625 1.140625,-0.03125 1.390625,-0.03125 1.640625,-0.03125 2.125,-0.015625 2.5,0 v -0.3125 c -0.671875,0 -0.78125,0 -0.78125,-0.4375 v -3.234375 z m 0,-0.3125 h -2.125 v -1.125 c 0,-0.921875 0.75,-1.390625 1.5,-1.390625 0.078125,0 0.34375,0 0.625,0.09375 -0.078125,0.046875 -0.25,0.140625 -0.25,0.40625 0,0.171875 0.09375,0.328125 0.25,0.375 z m 0,0"
           id="path1335" />
      </symbol>
      <symbol
         overflow="visible"
         id="symbol5813">
        <path
           style="stroke:none"
           d="M 3.890625,-0.78125 V 0.109375 L 5.328125,0 V -0.3125 C 4.640625,-0.3125 4.5625,-0.375 4.5625,-0.875 v -3.53125 l -1.46875,0.109375 v 0.3125 c 0.6875,0 0.78125,0.0625 0.78125,0.5625 v 1.765625 c 0,0.875 -0.484375,1.546875 -1.21875,1.546875 -0.828125,0 -0.875,-0.46875 -0.875,-0.984375 v -3.3125 L 0.3125,-4.296875 v 0.3125 c 0.78125,0 0.78125,0.03125 0.78125,0.90625 v 1.5 c 0,0.78125 0,1.6875 1.515625,1.6875 0.5625,0 1,-0.28125 1.28125,-0.890625 z m 0,0"
           id="path2537" />
      </symbol>
      <symbol
         overflow="visible"
         id="symbol948">
        <path
           style="stroke:none"
           d="m 2.09375,-4.40625 -1.515625,0.109375 v 0.3125 c 0.765625,0 0.859375,0.0625 0.859375,0.5625 v 3.9375 c 0,0.453125 -0.09375,1.3125 -0.734375,1.3125 -0.046875,0 -0.28125,0 -0.53125,-0.140625 C 0.3125,1.65625 0.515625,1.515625 0.515625,1.25 0.515625,0.984375 0.34375,0.78125 0.0625,0.78125 c -0.28125,0 -0.46875,0.203125 -0.46875,0.46875 0,0.515625 0.5625,0.796875 1.140625,0.796875 C 1.46875,2.046875 2.09375,1.40625 2.09375,0.5 Z m 0,-1.734375 c 0,-0.296875 -0.234375,-0.53125 -0.53125,-0.53125 -0.28125,0 -0.53125,0.234375 -0.53125,0.53125 0,0.28125 0.25,0.53125 0.53125,0.53125 0.296875,0 0.53125,-0.25 0.53125,-0.53125 z m 0,0"
           id="path8116" />
      </symbol>
      <symbol
         overflow="visible"
         id="symbol6297">
        <path
           style="stroke:none"
           d="M 4.6875,-2.140625 C 4.6875,-3.40625 3.703125,-4.46875 2.5,-4.46875 c -1.25,0 -2.21875,1.09375 -2.21875,2.328125 0,1.296875 1.03125,2.25 2.203125,2.25 1.203125,0 2.203125,-0.984375 2.203125,-2.25 z m -2.1875,2 c -0.4375,0 -0.875,-0.203125 -1.140625,-0.671875 -0.25,-0.4375 -0.25,-1.046875 -0.25,-1.40625 0,-0.390625 0,-0.921875 0.234375,-1.359375 C 1.609375,-4.03125 2.078125,-4.25 2.484375,-4.25 c 0.4375,0 0.859375,0.21875 1.125,0.65625 0.265625,0.421875 0.265625,1 0.265625,1.375 0,0.359375 0,0.90625 -0.21875,1.34375 C 3.421875,-0.421875 2.984375,-0.140625 2.5,-0.140625 Z m 0,0"
           id="path3133" />
      </symbol>
    </g>
    <g
       id="g4890">
      <symbol
         overflow="visible"
         id="symbol238">
        <path
           style="stroke:none"
           d=""
           id="path8740" />
      </symbol>
      <symbol
         overflow="visible"
         id="symbol1200">
        <path
           style="stroke:none"
           d="m 1.359375,-0.78125 c 0,0.359375 -0.03125,0.46875 -0.796875,0.46875 H 0.328125 V 0 h 5.75 L 6.5,-2.578125 H 6.25 C 6,-1.03125 5.765625,-0.3125 4.0625,-0.3125 H 2.734375 C 2.265625,-0.3125 2.25,-0.375 2.25,-0.703125 V -3.375 h 0.890625 c 0.96875,0 1.078125,0.328125 1.078125,1.171875 h 0.25 V -4.84375 h -0.25 c 0,0.859375 -0.109375,1.171875 -1.078125,1.171875 H 2.25 v -2.40625 c 0,-0.328125 0.015625,-0.390625 0.484375,-0.390625 h 1.28125 c 1.53125,0 1.796875,0.546875 1.953125,1.9375 h 0.25 l -0.28125,-2.25 H 0.328125 v 0.3125 H 0.5625 c 0.765625,0 0.796875,0.109375 0.796875,0.46875 z m 0,0"
           id="path4201" />
      </symbol>
      <symbol
         overflow="visible"
         id="symbol8828">
        <path
           style="stroke:none"
           d="m 2.078125,-1.9375 c 0.21875,0.046875 1.03125,0.203125 1.03125,0.921875 0,0.5 -0.34375,0.90625 -1.125,0.90625 -0.84375,0 -1.203125,-0.5625 -1.390625,-1.421875 C 0.5625,-1.65625 0.5625,-1.6875 0.453125,-1.6875 c -0.125,0 -0.125,0.0625 -0.125,0.234375 V -0.125 c 0,0.171875 0,0.234375 0.109375,0.234375 0.046875,0 0.0625,-0.015625 0.25,-0.203125 0.015625,-0.015625 0.015625,-0.03125 0.203125,-0.21875 0.4375,0.40625 0.890625,0.421875 1.09375,0.421875 1.140625,0 1.609375,-0.671875 1.609375,-1.390625 0,-0.515625 -0.296875,-0.828125 -0.421875,-0.9375 C 2.84375,-2.546875 2.453125,-2.625 2.03125,-2.703125 1.46875,-2.8125 0.8125,-2.9375 0.8125,-3.515625 c 0,-0.359375 0.25,-0.765625 1.109375,-0.765625 1.09375,0 1.15625,0.90625 1.171875,1.203125 0,0.09375 0.09375,0.09375 0.109375,0.09375 0.140625,0 0.140625,-0.046875 0.140625,-0.234375 v -1.015625 c 0,-0.15625 0,-0.234375 -0.109375,-0.234375 -0.046875,0 -0.078125,0 -0.203125,0.125 -0.03125,0.03125 -0.125,0.125 -0.171875,0.15625 -0.375,-0.28125 -0.78125,-0.28125 -0.9375,-0.28125 -1.21875,0 -1.59375,0.671875 -1.59375,1.234375 0,0.34375 0.15625,0.625 0.421875,0.84375 0.328125,0.25 0.609375,0.3125 1.328125,0.453125 z m 0,0"
           id="path4691" />
      </symbol>
      <symbol
         overflow="visible"
         id="symbol619">
        <path
           style="stroke:none"
           d="m 1.71875,-3.75 v -0.65625 l -1.4375,0.109375 v 0.3125 c 0.703125,0 0.78125,0.0625 0.78125,0.5 v 4.65625 C 1.0625,1.625 0.953125,1.625 0.28125,1.625 V 1.9375 C 0.625,1.921875 1.140625,1.90625 1.390625,1.90625 c 0.28125,0 0.78125,0.015625 1.125,0.03125 V 1.625 C 1.859375,1.625 1.75,1.625 1.75,1.171875 V -0.59375 c 0.046875,0.171875 0.46875,0.703125 1.21875,0.703125 1.1875,0 2.21875,-0.984375 2.21875,-2.265625 0,-1.265625 -0.953125,-2.25 -2.078125,-2.25 -0.78125,0 -1.203125,0.4375 -1.390625,0.65625 z M 1.75,-1.140625 v -2.21875 C 2.03125,-3.875 2.515625,-4.15625 3.03125,-4.15625 c 0.734375,0 1.328125,0.875 1.328125,2 0,1.203125 -0.6875,2.046875 -1.421875,2.046875 -0.40625,0 -0.78125,-0.203125 -1.046875,-0.609375 C 1.75,-0.921875 1.75,-0.9375 1.75,-1.140625 Z m 0,0"
           id="path3480" />
      </symbol>
      <symbol
         overflow="visible"
         id="symbol6262">
        <path
           style="stroke:none"
           d="M 1.109375,-2.515625 C 1.171875,-4 2.015625,-4.25 2.359375,-4.25 c 1.015625,0 1.125,1.34375 1.125,1.734375 z m 0,0.21875 h 2.78125 c 0.21875,0 0.25,0 0.25,-0.21875 0,-0.984375 -0.546875,-1.953125 -1.78125,-1.953125 -1.15625,0 -2.078125,1.03125 -2.078125,2.28125 0,1.328125 1.046875,2.296875 2.1875,2.296875 C 3.6875,0.109375 4.140625,-1 4.140625,-1.1875 4.140625,-1.28125 4.0625,-1.3125 4,-1.3125 c -0.078125,0 -0.109375,0.0625 -0.125,0.140625 -0.34375,1.03125 -1.25,1.03125 -1.34375,1.03125 -0.5,0 -0.890625,-0.296875 -1.125,-0.671875 -0.296875,-0.46875 -0.296875,-1.125 -0.296875,-1.484375 z m 0,0"
           id="path2402" />
      </symbol>
      <symbol
         overflow="visible"
         id="symbol1181">
        <path
           style="stroke:none"
           d="M 4.6875,-2.140625 C 4.6875,-3.40625 3.703125,-4.46875 2.5,-4.46875 c -1.25,0 -2.21875,1.09375 -2.21875,2.328125 0,1.296875 1.03125,2.25 2.203125,2.25 1.203125,0 2.203125,-0.984375 2.203125,-2.25 z m -2.1875,2 c -0.4375,0 -0.875,-0.203125 -1.140625,-0.671875 -0.25,-0.4375 -0.25,-1.046875 -0.25,-1.40625 0,-0.390625 0,-0.921875 0.234375,-1.359375 C 1.609375,-4.03125 2.078125,-4.25 2.484375,-4.25 c 0.4375,0 0.859375,0.21875 1.125,0.65625 0.265625,0.421875 0.265625,1 0.265625,1.375 0,0.359375 0,0.90625 -0.21875,1.34375 C 3.421875,-0.421875 2.984375,-0.140625 2.5,-0.140625 Z m 0,0"
           id="path4244" />
      </symbol>
      <symbol
         overflow="visible"
         id="symbol6088">
        <path
           style="stroke:none"
           d="M 1.671875,-3.3125 V -4.40625 L 0.28125,-4.296875 v 0.3125 c 0.703125,0 0.78125,0.0625 0.78125,0.5625 V -0.75 c 0,0.4375 -0.109375,0.4375 -0.78125,0.4375 V 0 c 0.390625,-0.015625 0.859375,-0.03125 1.140625,-0.03125 0.390625,0 0.859375,0 1.265625,0.03125 V -0.3125 H 2.46875 c -0.734375,0 -0.75,-0.109375 -0.75,-0.46875 V -2.3125 c 0,-0.984375 0.421875,-1.875 1.171875,-1.875 0.0625,0 0.09375,0 0.109375,0.015625 -0.03125,0 -0.234375,0.125 -0.234375,0.390625 0,0.265625 0.21875,0.421875 0.4375,0.421875 0.171875,0 0.421875,-0.125 0.421875,-0.4375 0,-0.3125 -0.3125,-0.609375 -0.734375,-0.609375 -0.734375,0 -1.09375,0.671875 -1.21875,1.09375 z m 0,0"
           id="path3952" />
      </symbol>
      <symbol
         overflow="visible"
         id="symbol4939">
        <path
           style="stroke:none"
           d="m 3.78125,-0.546875 v 0.65625 L 5.25,0 v -0.3125 c -0.6875,0 -0.78125,-0.0625 -0.78125,-0.5625 V -6.921875 L 3.046875,-6.8125 V -6.5 c 0.6875,0 0.765625,0.0625 0.765625,0.5625 v 2.15625 c -0.28125,-0.359375 -0.71875,-0.625 -1.25,-0.625 -1.171875,0 -2.21875,0.984375 -2.21875,2.265625 0,1.265625 0.96875,2.25 2.109375,2.25 0.640625,0 1.078125,-0.34375 1.328125,-0.65625 z m 0,-2.671875 v 2.046875 c 0,0.171875 0,0.1875 -0.109375,0.359375 C 3.375,-0.328125 2.9375,-0.109375 2.5,-0.109375 2.046875,-0.109375 1.6875,-0.375 1.453125,-0.75 1.203125,-1.15625 1.171875,-1.71875 1.171875,-2.140625 1.171875,-2.5 1.1875,-3.09375 1.46875,-3.546875 1.6875,-3.859375 2.0625,-4.1875 2.609375,-4.1875 c 0.34375,0 0.765625,0.15625 1.0625,0.59375 0.109375,0.171875 0.109375,0.1875 0.109375,0.375 z m 0,0"
           id="path3838" />
      </symbol>
      <symbol
         overflow="visible"
         id="symbol7408">
        <path
           style="stroke:none"
           d="M 1.765625,-6.921875 0.328125,-6.8125 V -6.5 c 0.703125,0 0.78125,0.0625 0.78125,0.5625 V -0.75 c 0,0.4375 -0.109375,0.4375 -0.78125,0.4375 V 0 C 0.65625,-0.015625 1.1875,-0.03125 1.4375,-0.03125 c 0.25,0 0.734375,0.015625 1.109375,0.03125 v -0.3125 c -0.671875,0 -0.78125,0 -0.78125,-0.4375 z m 0,0"
           id="path1592" />
      </symbol>
      <symbol
         overflow="visible"
         id="symbol4608">
        <path
           style="stroke:none"
           d="m 3.3125,-0.75 c 0.046875,0.390625 0.3125,0.8125 0.78125,0.8125 0.21875,0 0.828125,-0.140625 0.828125,-0.953125 v -0.5625 h -0.25 v 0.5625 c 0,0.578125 -0.25,0.640625 -0.359375,0.640625 -0.328125,0 -0.375,-0.453125 -0.375,-0.5 v -1.984375 c 0,-0.421875 0,-0.8125 -0.359375,-1.1875 C 3.1875,-4.3125 2.6875,-4.46875 2.21875,-4.46875 c -0.828125,0 -1.515625,0.46875 -1.515625,1.125 0,0.296875 0.203125,0.46875 0.46875,0.46875 0.28125,0 0.453125,-0.203125 0.453125,-0.453125 0,-0.125 -0.046875,-0.453125 -0.515625,-0.453125 C 1.390625,-4.140625 1.875,-4.25 2.1875,-4.25 c 0.5,0 1.0625,0.390625 1.0625,1.28125 v 0.359375 c -0.515625,0.03125 -1.203125,0.0625 -1.828125,0.359375 -0.75,0.34375 -1,0.859375 -1,1.296875 0,0.8125 0.96875,1.0625 1.59375,1.0625 0.65625,0 1.109375,-0.40625 1.296875,-0.859375 z M 3.25,-2.390625 v 1 c 0,0.9375 -0.71875,1.28125 -1.171875,1.28125 -0.484375,0 -0.890625,-0.34375 -0.890625,-0.84375 0,-0.546875 0.421875,-1.375 2.0625,-1.4375 z m 0,0"
           id="path2943" />
      </symbol>
    </g>
    <g
       id="g9761">
      <symbol
         overflow="visible"
         id="symbol8480">
        <path
           style="stroke:none"
           d=""
           id="path3177" />
      </symbol>
      <symbol
         overflow="visible"
         id="symbol4692">
        <path
           style="stroke:none"
           d="m 1.578125,-0.78125 c -0.09375,0.390625 -0.109375,0.46875 -0.90625,0.46875 -0.15625,0 -0.265625,0 -0.265625,0.1875 C 0.40625,0 0.484375,0 0.671875,0 h 3.3125 c 2.0625,0 4.03125,-2.109375 4.03125,-4.28125 0,-1.40625 -0.84375,-2.53125 -2.34375,-2.53125 h -3.34375 c -0.1875,0 -0.296875,0 -0.296875,0.1875 0,0.125 0.078125,0.125 0.28125,0.125 0.125,0 0.3125,0.015625 0.421875,0.015625 0.171875,0.03125 0.21875,0.046875 0.21875,0.171875 0,0.03125 0,0.0625 -0.03125,0.1875 z M 3.734375,-6.125 C 3.828125,-6.46875 3.84375,-6.5 4.28125,-6.5 h 1.0625 c 0.96875,0 1.796875,0.53125 1.796875,1.84375 0,0.484375 -0.1875,2.125 -1.046875,3.21875 -0.28125,0.375 -1.0625,1.125 -2.296875,1.125 h -1.125 c -0.140625,0 -0.15625,0 -0.21875,0 -0.09375,-0.015625 -0.125,-0.03125 -0.125,-0.109375 0,-0.03125 0,-0.046875 0.046875,-0.21875 z m 0,0"
           id="path6230" />
      </symbol>
      <symbol
         overflow="visible"
         id="symbol1445">
        <path
           style="stroke:none"
           d=""
           id="path198" />
      </symbol>
      <symbol
         overflow="visible"
         id="symbol8168">
        <path
           style="stroke:none"
           d="m 1.46875,-4.296875 c 0,-0.203125 -0.171875,-0.40625 -0.40625,-0.40625 -0.203125,0 -0.390625,0.171875 -0.390625,0.40625 0,0.25 0.203125,0.40625 0.390625,0.40625 0.234375,0 0.40625,-0.171875 0.40625,-0.40625 z M 0.40625,-3 v 0.25 c 0.4375,0 0.5,0.046875 0.5,0.390625 v 1.8125 C 0.90625,-0.25 0.84375,-0.25 0.390625,-0.25 V 0 c 0.015625,0 0.5,-0.03125 0.78125,-0.03125 0.25,0 0.5,0.015625 0.734375,0.03125 V -0.25 C 1.5,-0.25 1.4375,-0.25 1.4375,-0.546875 v -2.53125 z m 0,0"
           id="path9782" />
      </symbol>
      <symbol
         overflow="visible"
         id="symbol9037">
        <path
           style="stroke:none"
           d="m 3.59375,-2.109375 c 0,-0.609375 -0.296875,-0.96875 -1.046875,-0.96875 -0.578125,0 -0.9375,0.3125 -1.140625,0.6875 v -0.6875 L 0.375,-3 v 0.25 c 0.46875,0 0.53125,0.046875 0.53125,0.390625 v 1.8125 C 0.90625,-0.25 0.828125,-0.25 0.375,-0.25 V 0 C 0.390625,0 0.875,-0.03125 1.171875,-0.03125 1.421875,-0.03125 1.90625,0 1.96875,0 v -0.25 c -0.453125,0 -0.515625,0 -0.515625,-0.296875 V -1.8125 c 0,-0.71875 0.578125,-1.0625 1.03125,-1.0625 0.484375,0 0.546875,0.375 0.546875,0.734375 v 1.59375 C 3.03125,-0.25 2.96875,-0.25 2.515625,-0.25 V 0 C 2.53125,0 3.015625,-0.03125 3.3125,-0.03125 3.5625,-0.03125 4.046875,0 4.109375,0 v -0.25 c -0.453125,0 -0.515625,0 -0.515625,-0.296875 z m 0,0"
           id="path7194" />
      </symbol>
      <symbol
         overflow="visible"
         id="symbol985">
        <path
           style="stroke:none"
           d="M 1.40625,-2.75 H 2.484375 V -3 H 1.40625 v -1.28125 h -0.25 c 0,0.625 -0.28125,1.3125 -0.953125,1.328125 V -2.75 H 0.84375 v 1.875 c 0,0.78125 0.59375,0.9375 0.984375,0.9375 0.46875,0 0.78125,-0.390625 0.78125,-0.9375 V -1.265625 H 2.375 v 0.375 c 0,0.484375 -0.21875,0.734375 -0.5,0.734375 -0.46875,0 -0.46875,-0.578125 -0.46875,-0.703125 z m 0,0"
           id="path6982" />
      </symbol>
      <symbol
         overflow="visible"
         id="symbol5793">
        <path
           style="stroke:none"
           d="m 3.0625,-1.59375 c 0.15625,0 0.203125,0 0.203125,-0.140625 0,-0.625 -0.34375,-1.375 -1.390625,-1.375 -0.90625,0 -1.609375,0.71875 -1.609375,1.578125 0,0.890625 0.78125,1.59375 1.703125,1.59375 0.9375,0 1.296875,-0.75 1.296875,-0.90625 0,-0.015625 -0.015625,-0.09375 -0.125,-0.09375 -0.09375,0 -0.109375,0.046875 -0.125,0.109375 -0.21875,0.5625 -0.75,0.671875 -1,0.671875 C 1.6875,-0.15625 1.375,-0.296875 1.171875,-0.5625 0.90625,-0.890625 0.90625,-1.3125 0.90625,-1.59375 Z M 0.90625,-1.765625 C 0.984375,-2.75 1.609375,-2.90625 1.875,-2.90625 c 0.859375,0 0.890625,0.96875 0.90625,1.140625 z m 0,0"
           id="path8607" />
      </symbol>
      <symbol
         overflow="visible"
         id="symbol1472">
        <path
           style="stroke:none"
           d="m 1.390625,-1.59375 c 0,-0.578125 0.265625,-1.28125 0.9375,-1.28125 -0.0625,0.046875 -0.125,0.140625 -0.125,0.25 0,0.234375 0.1875,0.3125 0.3125,0.3125 0.171875,0 0.328125,-0.109375 0.328125,-0.3125 0,-0.234375 -0.234375,-0.453125 -0.5625,-0.453125 -0.34375,0 -0.734375,0.21875 -0.9375,0.75 v -0.75 L 0.34375,-3 v 0.25 c 0.46875,0 0.515625,0.046875 0.515625,0.390625 v 1.8125 C 0.859375,-0.25 0.796875,-0.25 0.34375,-0.25 V 0 c 0.03125,0 0.5,-0.03125 0.796875,-0.03125 0.296875,0 0.59375,0.015625 0.90625,0.03125 V -0.25 H 1.90625 c -0.515625,0 -0.515625,-0.078125 -0.515625,-0.3125 z m 0,0"
           id="path1941" />
      </symbol>
      <symbol
         overflow="visible"
         id="symbol1871">
        <path
           style="stroke:none"
           d="m 3.6875,-1.484375 c 0,-0.875 -0.75,-1.625 -1.703125,-1.625 -0.96875,0 -1.71875,0.75 -1.71875,1.625 0,0.859375 0.765625,1.546875 1.71875,1.546875 0.9375,0 1.703125,-0.6875 1.703125,-1.546875 z M 1.984375,-0.15625 c -0.265625,0 -0.640625,-0.078125 -0.875,-0.421875 -0.1875,-0.28125 -0.203125,-0.640625 -0.203125,-0.96875 0,-0.296875 0,-0.71875 0.25,-1.015625 0.171875,-0.203125 0.46875,-0.34375 0.828125,-0.34375 0.40625,0 0.703125,0.1875 0.859375,0.40625 0.1875,0.265625 0.203125,0.625 0.203125,0.953125 0,0.328125 -0.015625,0.703125 -0.21875,0.984375 -0.1875,0.265625 -0.5,0.40625 -0.84375,0.40625 z m 0,0"
           id="path8721" />
      </symbol>
    </g>
    <g
       id="g3837">
      <symbol
         overflow="visible"
         id="symbol2978">
        <path
           style="stroke:none"
           d=""
           id="path2835" />
      </symbol>
      <symbol
         overflow="visible"
         id="symbol3256">
        <path
           style="stroke:none"
           d="m 1.578125,-0.78125 c -0.09375,0.390625 -0.109375,0.46875 -0.90625,0.46875 -0.15625,0 -0.265625,0 -0.265625,0.1875 C 0.40625,0 0.484375,0 0.671875,0 h 3.3125 c 2.0625,0 4.03125,-2.109375 4.03125,-4.28125 0,-1.40625 -0.84375,-2.53125 -2.34375,-2.53125 h -3.34375 c -0.1875,0 -0.296875,0 -0.296875,0.1875 0,0.125 0.078125,0.125 0.28125,0.125 0.125,0 0.3125,0.015625 0.421875,0.015625 0.171875,0.03125 0.21875,0.046875 0.21875,0.171875 0,0.03125 0,0.0625 -0.03125,0.1875 z M 3.734375,-6.125 C 3.828125,-6.46875 3.84375,-6.5 4.28125,-6.5 h 1.0625 c 0.96875,0 1.796875,0.53125 1.796875,1.84375 0,0.484375 -0.1875,2.125 -1.046875,3.21875 -0.28125,0.375 -1.0625,1.125 -2.296875,1.125 h -1.125 c -0.140625,0 -0.15625,0 -0.21875,0 -0.09375,-0.015625 -0.125,-0.03125 -0.125,-0.109375 0,-0.03125 0,-0.046875 0.046875,-0.21875 z m 0,0"
           id="path5896" />
      </symbol>
      <symbol
         overflow="visible"
         id="symbol6083">
        <path
           style="stroke:none"
           d=""
           id="path903" />
      </symbol>
      <symbol
         overflow="visible"
         id="symbol8618">
        <path
           style="stroke:none"
           d="m 1.46875,-4.296875 c 0,-0.203125 -0.171875,-0.40625 -0.40625,-0.40625 -0.203125,0 -0.390625,0.171875 -0.390625,0.40625 0,0.25 0.203125,0.40625 0.390625,0.40625 0.234375,0 0.40625,-0.171875 0.40625,-0.40625 z M 0.40625,-3 v 0.25 c 0.4375,0 0.5,0.046875 0.5,0.390625 v 1.8125 C 0.90625,-0.25 0.84375,-0.25 0.390625,-0.25 V 0 c 0.015625,0 0.5,-0.03125 0.78125,-0.03125 0.25,0 0.5,0.015625 0.734375,0.03125 V -0.25 C 1.5,-0.25 1.4375,-0.25 1.4375,-0.546875 v -2.53125 z m 0,0"
           id="path8304" />
      </symbol>
      <symbol
         overflow="visible"
         id="symbol2907">
        <path
           style="stroke:none"
           d="m 3.59375,-2.109375 c 0,-0.609375 -0.296875,-0.96875 -1.046875,-0.96875 -0.578125,0 -0.9375,0.3125 -1.140625,0.6875 v -0.6875 L 0.375,-3 v 0.25 c 0.46875,0 0.53125,0.046875 0.53125,0.390625 v 1.8125 C 0.90625,-0.25 0.828125,-0.25 0.375,-0.25 V 0 C 0.390625,0 0.875,-0.03125 1.171875,-0.03125 1.421875,-0.03125 1.90625,0 1.96875,0 v -0.25 c -0.453125,0 -0.515625,0 -0.515625,-0.296875 V -1.8125 c 0,-0.71875 0.578125,-1.0625 1.03125,-1.0625 0.484375,0 0.546875,0.375 0.546875,0.734375 v 1.59375 C 3.03125,-0.25 2.96875,-0.25 2.515625,-0.25 V 0 C 2.53125,0 3.015625,-0.03125 3.3125,-0.03125 3.5625,-0.03125 4.046875,0 4.109375,0 v -0.25 c -0.453125,0 -0.515625,0 -0.515625,-0.296875 z m 0,0"
           id="path510" />
      </symbol>
      <symbol
         overflow="visible"
         id="symbol9327">
        <path
           style="stroke:none"
           d="M 1.40625,-2.75 H 2.484375 V -3 H 1.40625 v -1.28125 h -0.25 c 0,0.625 -0.28125,1.3125 -0.953125,1.328125 V -2.75 H 0.84375 v 1.875 c 0,0.78125 0.59375,0.9375 0.984375,0.9375 0.46875,0 0.78125,-0.390625 0.78125,-0.9375 V -1.265625 H 2.375 v 0.375 c 0,0.484375 -0.21875,0.734375 -0.5,0.734375 -0.46875,0 -0.46875,-0.578125 -0.46875,-0.703125 z m 0,0"
           id="path5757" />
      </symbol>
      <symbol
         overflow="visible"
         id="symbol5493">
        <path
           style="stroke:none"
           d="m 3.0625,-1.59375 c 0.15625,0 0.203125,0 0.203125,-0.140625 0,-0.625 -0.34375,-1.375 -1.390625,-1.375 -0.90625,0 -1.609375,0.71875 -1.609375,1.578125 0,0.890625 0.78125,1.59375 1.703125,1.59375 0.9375,0 1.296875,-0.75 1.296875,-0.90625 0,-0.015625 -0.015625,-0.09375 -0.125,-0.09375 -0.09375,0 -0.109375,0.046875 -0.125,0.109375 -0.21875,0.5625 -0.75,0.671875 -1,0.671875 C 1.6875,-0.15625 1.375,-0.296875 1.171875,-0.5625 0.90625,-0.890625 0.90625,-1.3125 0.90625,-1.59375 Z M 0.90625,-1.765625 C 0.984375,-2.75 1.609375,-2.90625 1.875,-2.90625 c 0.859375,0 0.890625,0.96875 0.90625,1.140625 z m 0,0"
           id="path9613" />
      </symbol>
      <symbol
         overflow="visible"
         id="symbol2938">
        <path
           style="stroke:none"
           d="m 1.390625,-1.59375 c 0,-0.578125 0.265625,-1.28125 0.9375,-1.28125 -0.0625,0.046875 -0.125,0.140625 -0.125,0.25 0,0.234375 0.1875,0.3125 0.3125,0.3125 0.171875,0 0.328125,-0.109375 0.328125,-0.3125 0,-0.234375 -0.234375,-0.453125 -0.5625,-0.453125 -0.34375,0 -0.734375,0.21875 -0.9375,0.75 v -0.75 L 0.34375,-3 v 0.25 c 0.46875,0 0.515625,0.046875 0.515625,0.390625 v 1.8125 C 0.859375,-0.25 0.796875,-0.25 0.34375,-0.25 V 0 c 0.03125,0 0.5,-0.03125 0.796875,-0.03125 0.296875,0 0.59375,0.015625 0.90625,0.03125 V -0.25 H 1.90625 c -0.515625,0 -0.515625,-0.078125 -0.515625,-0.3125 z m 0,0"
           id="path250" />
      </symbol>
      <symbol
         overflow="visible"
         id="symbol2917">
        <path
           style="stroke:none"
           d="m 3.6875,-1.484375 c 0,-0.875 -0.75,-1.625 -1.703125,-1.625 -0.96875,0 -1.71875,0.75 -1.71875,1.625 0,0.859375 0.765625,1.546875 1.71875,1.546875 0.9375,0 1.703125,-0.6875 1.703125,-1.546875 z M 1.984375,-0.15625 c -0.265625,0 -0.640625,-0.078125 -0.875,-0.421875 -0.1875,-0.28125 -0.203125,-0.640625 -0.203125,-0.96875 0,-0.296875 0,-0.71875 0.25,-1.015625 0.171875,-0.203125 0.46875,-0.34375 0.828125,-0.34375 0.40625,0 0.703125,0.1875 0.859375,0.40625 0.1875,0.265625 0.203125,0.625 0.203125,0.953125 0,0.328125 -0.015625,0.703125 -0.21875,0.984375 -0.1875,0.265625 -0.5,0.40625 -0.84375,0.40625 z m 0,0"
           id="path4824" />
      </symbol>
    </g>
  </defs>
  <g
     inkscape:label="Layer 1"
     inkscape:groupmode="layer"
     id="layer1"
     transform="translate(-52.443406,-49.159287)">
    <rect
       style="fill:#ffffff;stroke:#ffffff;stroke-width:0.168547;stroke-linejoin:round;stroke-miterlimit:4;stroke-dasharray:0.337095, 0.168547;stroke-dashoffset:0"
       id="rect5891"
       width="25.93923"
       height="26.591722"
       x="52.527679"
       y="49.243561"
       inkscape:export-filename="C:\Users\enriq\Dropbox\DIM_UDEC\Mecanica_de_fluidos\Material\presentaciones\2022-2\6- flujos internos viscosos\Figures\tuberia_diametro.png"
       inkscape:export-xdpi="300"
       inkscape:export-ydpi="300" />
    <g
       inkscape:label=""
       transform="translate(-55.877844,-42.268935)"
       id="g4009" />
    <g
       id="g5867">
      <circle
         style="fill:#cccccc;stroke:#000000;stroke-width:0.5;stroke-linejoin:round;stroke-miterlimit:4;stroke-dasharray:none"
         id="path846"
         cx="64.349998"
         cy="63.983334"
         r="11.183332" />
      <circle
         style="fill:#aaeeff;stroke:#000000;stroke-width:0.5;stroke-linejoin:round;stroke-miterlimit:4;stroke-dasharray:none"
         id="circle994"
         cx="64.349998"
         cy="63.983334"
         r="8.403801" />
      <path
         style="fill:#008000;stroke:#008000;stroke-width:0.264583px;stroke-linecap:butt;stroke-linejoin:miter;stroke-opacity:1;marker-end:url(#Arrow2Mend)"
         d="m 64.349997,63.983332 7.578802,2e-6"
         id="path1093"
         sodipodi:nodetypes="cc" />
      <path
         style="fill:#ff0000;stroke:#ff0000;stroke-width:0.264583px;stroke-linecap:butt;stroke-linejoin:miter;stroke-opacity:1;marker-end:url(#marker1926)"
         d="M 64.349997,63.983332 V 74.50843"
         id="path1922" />
      <g
         id="g5656"
         transform="matrix(1.8007784,0,0,1.8007784,-19.763369,-37.052278)"
         style="fill:#ff0000">
        <use
           xlink:href="#symbol2580"
           x="91.925003"
           y="81.962997"
           id="use3928"
           width="100%"
           height="100%"
           transform="matrix(0.17489772,0,0,0.17489772,28.306969,44.472681)"
           style="fill:#ff0000;fill-opacity:1" />
        <use
           xlink:href="#symbol7160"
           x="100.173"
           y="83.457001"
           id="use4201"
           width="100%"
           height="100%"
           transform="matrix(0.17489772,0,0,0.17489772,28.306969,44.472681)"
           style="fill:#ff0000;fill-opacity:1" />
      </g>
      <g
         inkscape:label=""
         transform="matrix(0.17274998,0,0,0.17274998,44.170922,47.531673)"
         id="g3074"
         style="fill:#0000ff;stroke:#0000ff">
        <g
           id="g5676"
           style="fill:#0000ff;stroke:#0000ff">
          <g
             style="fill:#0000ff;fill-opacity:1;stroke:#0000ff"
             id="g7723">
            <use
               xlink:href="#symbol8833"
               x="93.170998"
               y="79.445"
               id="use7977"
               width="100%"
               height="100%"
               style="fill:#0000ff;stroke:#0000ff" />
          </g>
          <g
             style="fill:#0000ff;fill-opacity:1;stroke:#0000ff"
             id="g2746">
            <use
               xlink:href="#symbol3179"
               x="91.925003"
               y="81.962997"
               id="use5373"
               width="100%"
               height="100%"
               style="fill:#0000ff;stroke:#0000ff" />
            <use
               xlink:href="#symbol9603"
               x="99.39695"
               y="81.962997"
               id="use4489"
               width="100%"
               height="100%"
               style="fill:#0000ff;stroke:#0000ff" />
            <use
               xlink:href="#symbol8899"
               x="103.2993"
               y="81.962997"
               id="use9422"
               width="100%"
               height="100%"
               style="fill:#0000ff;stroke:#0000ff" />
            <use
               xlink:href="#symbol1168"
               x="107.72668"
               y="81.962997"
               id="use4509"
               width="100%"
               height="100%"
               style="fill:#0000ff;stroke:#0000ff" />
          </g>
          <g
             style="fill:#0000ff;fill-opacity:1;stroke:#0000ff"
             id="g4628">
            <use
               xlink:href="#symbol4584"
               x="116.02553"
               y="81.962997"
               id="use3538"
               width="100%"
               height="100%"
               style="fill:#0000ff;stroke:#0000ff" />
            <use
               xlink:href="#symbol8899"
               x="121.56075"
               y="81.962997"
               id="use2743"
               width="100%"
               height="100%"
               style="fill:#0000ff;stroke:#0000ff" />
          </g>
          <g
             style="fill:#0000ff;fill-opacity:1;stroke:#0000ff"
             id="g1977">
            <use
               xlink:href="#symbol8187"
               x="129.31563"
               y="81.962997"
               id="use7398"
               width="100%"
               height="100%"
               style="fill:#0000ff;stroke:#0000ff" />
            <use
               xlink:href="#symbol5813"
               x="134.85086"
               y="81.962997"
               id="use9457"
               width="100%"
               height="100%"
               style="fill:#0000ff;stroke:#0000ff" />
            <use
               xlink:href="#symbol948"
               x="140.38608"
               y="81.962997"
               id="use4232"
               width="100%"
               height="100%"
               style="fill:#0000ff;stroke:#0000ff" />
            <use
               xlink:href="#symbol6297"
               x="143.43065"
               y="81.962997"
               id="use3253"
               width="100%"
               height="100%"
               style="fill:#0000ff;stroke:#0000ff" />
          </g>
        </g>
      </g>
      <path
         style="fill:none;stroke:#000000;stroke-width:0.264583px;stroke-linecap:butt;stroke-linejoin:miter;stroke-opacity:1;marker-end:url(#marker3261)"
         d="M 67.248802,58.790035 68.43173,57.607104"
         id="path3249" />
      <path
         style="fill:none;stroke:#000000;stroke-width:0.264583px;stroke-linecap:butt;stroke-linejoin:miter;stroke-opacity:1;marker-end:url(#marker3261)"
         d="m 72.75969,53.295348 -1.182928,1.182931"
         id="path3349" />
      <path
         style="fill:none;stroke:#000000;stroke-width:0.2;stroke-linecap:butt;stroke-linejoin:miter;stroke-miterlimit:4;stroke-dasharray:0.4, 0.2;stroke-dashoffset:0;stroke-opacity:1"
         d="m 68.975215,57.068696 2.058059,-2.052009"
         id="path3497" />
      <g
         id="g5784"
         transform="matrix(0.19969427,0,0,0.19969427,50.587746,36.279733)">
        <g
           id="g5758"
           transform="translate(44.572559,-9.074537)">
          <g
             style="fill:#000000;fill-opacity:1"
             id="g6015"
             transform="translate(-39.798327,0.9074537)">
            <use
               xlink:href="#symbol1200"
               x="91.925003"
               y="81.962997"
               id="use7910"
               width="100%"
               height="100%" />
            <use
               xlink:href="#symbol8828"
               x="98.705544"
               y="81.962997"
               id="use5915"
               width="100%"
               height="100%" />
            <use
               xlink:href="#symbol619"
               x="102.6348"
               y="81.962997"
               id="use8152"
               width="100%"
               height="100%" />
          </g>
          <g
             style="fill:#000000;fill-opacity:1"
             id="g1056"
             transform="translate(-39.798327,0.9074537)">
            <use
               xlink:href="#symbol6262"
               x="108.44897"
               y="81.962997"
               id="use1663"
               width="100%"
               height="100%" />
            <use
               xlink:href="#symbol8828"
               x="112.87635"
               y="81.962997"
               id="use6973"
               width="100%"
               height="100%" />
            <use
               xlink:href="#symbol1181"
               x="116.8056"
               y="81.962997"
               id="use1403"
               width="100%"
               height="100%" />
            <use
               xlink:href="#symbol6088"
               x="121.7869"
               y="81.962997"
               id="use5209"
               width="100%"
               height="100%" />
          </g>
        </g>
        <g
           id="g5747">
          <g
             style="fill:#000000;fill-opacity:1"
             id="g6823"
             transform="translate(-39.798327,0.9074537)">
            <use
               xlink:href="#symbol4939"
               x="129.00679"
               y="81.962997"
               id="use6254"
               width="100%"
               height="100%" />
            <use
               xlink:href="#symbol6262"
               x="134.54201"
               y="81.962997"
               id="use6793"
               width="100%"
               height="100%" />
          </g>
          <g
             style="fill:#000000;fill-opacity:1"
             id="g1879"
             transform="translate(-39.798327,0.9074537)">
            <use
               xlink:href="#symbol7408"
               x="142.29691"
               y="81.962997"
               id="use2930"
               width="100%"
               height="100%" />
          </g>
          <g
             style="fill:#000000;fill-opacity:1"
             id="g2103"
             transform="translate(-39.798327,0.9074537)">
            <use
               xlink:href="#symbol4608"
               x="145.05455"
               y="81.962997"
               id="use258"
               width="100%"
               height="100%" />
          </g>
          <g
             style="fill:#000000;fill-opacity:1"
             id="g8386"
             transform="translate(-39.798327,0.9074537)">
            <use
               xlink:href="#symbol619"
               x="153.36336"
               y="81.962997"
               id="use623"
               width="100%"
               height="100%" />
            <use
               xlink:href="#symbol4608"
               x="158.89857"
               y="81.962997"
               id="use4765"
               width="100%"
               height="100%" />
            <use
               xlink:href="#symbol6088"
               x="163.87988"
               y="81.962997"
               id="use3662"
               width="100%"
               height="100%" />
            <use
               xlink:href="#symbol6262"
               x="167.78223"
               y="81.962997"
               id="use661"
               width="100%"
               height="100%" />
            <use
               xlink:href="#symbol4939"
               x="172.20961"
               y="81.962997"
               id="use6558"
               width="100%"
               height="100%" />
          </g>
        </g>
      </g>
      <g
         id="g5652"
         transform="matrix(1.8007784,0,0,1.8007784,-19.095256,-32.837226)"
         style="fill:#008000;stroke:#008000">
        <g
           style="fill:#008000;fill-opacity:1;stroke:#008000"
           id="g5060"
           transform="matrix(0.17216508,0,0,0.17216508,31.757934,41.15423)">
          <use
             xlink:href="#symbol3256"
             x="91.925003"
             y="81.962997"
             id="use6065"
             width="100%"
             height="100%"
             style="fill:#008000;stroke:#008000" />
        </g>
        <use
           xlink:href="#symbol8618"
           x="100.173"
           y="83.457001"
           id="use6083"
           width="100%"
           height="100%"
           transform="matrix(0.17216508,0,0,0.17216508,31.757934,41.15423)"
           style="fill:#008000;fill-opacity:1;stroke:#008000" />
      </g>
    </g>
  </g>
</svg>
